<svg xmlns="http://www.w3.org/2000/svg"
    width="24" height="24" viewBox="0 0 24 24"
    fill="none" stroke="#64751C" stroke-width="1.8"
    stroke-linecap="round" stroke-linejoin="round">
<path d="M4 9h16"/>
  <path d="m5 9 1-5h12l1 5"/>
  <path d="M5 9v11h14V9"/>
  <path d="M8 20v-6h4v6"/>
  <path d="M15 13h2"/>
  <path d="M4 9c0 1.4 1 2.5 2.2 2.5S8.5 10.4 8.5 9"/>
  <path d="M8.5 9c0 1.4 1 2.5 2.2 2.5S13 10.4 13 9"/>
  <path d="M13 9c0 1.4 1 2.5 2.2 2.5S17.5 10.4 17.5 9"/>
  <path d="M17.5 9c0 1.4 1 2.5 2.5 2.5"/>
</svg>
